<?xml version="1.0" standalone="no"?>
<!DOCTYPE svg PUBLIC "-//W3C//DTD SVG 20010904//EN"
 "http://www.w3.org/TR/2001/REC-SVG-20010904/DTD/svg10.dtd">
<svg version="1.0" xmlns="http://www.w3.org/2000/svg"
 width="629.000000pt" height="629.000000pt" viewBox="0 0 629.000000 629.000000"
 preserveAspectRatio="xMidYMid meet">
<metadata>
Created by potrace 1.11, written by Peter Selinger 2001-2013
</metadata>
<g transform="translate(0.000000,629.000000) scale(0.100000,-0.100000)"
fill="#000000" stroke="none">
<path d="M3199 6269 c-67 -16 -205 -72 -219 -88 -3 -4 -23 -18 -45 -32 -50
-33 -138 -121 -175 -174 -51 -74 -106 -197 -117 -260 -2 -11 -7 -42 -12 -70
-9 -50 -7 -183 3 -240 17 -93 86 -250 140 -313 67 -80 86 -99 145 -144 60 -45
167 -103 209 -113 9 -3 42 -12 72 -20 57 -16 219 -23 280 -12 65 12 83 16 119
28 58 19 122 49 180 86 29 19 56 32 59 29 3 -3 3 -6 -1 -6 -3 0 0 -18 8 -40 8
-22 12 -40 10 -40 -2 0 7 -27 20 -60 94 -241 297 -412 550 -466 73 -15 212
-13 295 5 93 21 171 49 182 65 4 6 8 7 8 3 0 -20 131 77 213 158 55 54 147
212 162 280 2 6 8 30 15 55 17 62 22 209 10 287 -15 94 -68 237 -94 255 -6 4
-8 8 -3 8 8 0 -30 54 -83 119 -93 112 -272 210 -433 238 -49 8 -216 8 -267 -1
-69 -12 -188 -61 -255 -105 -62 -41 -65 -42 -69 -19 -1 7 -9 33 -16 58 -7 25
-14 50 -15 55 -6 26 -52 115 -86 165 -77 114 -193 212 -317 267 -135 61 -327
78 -473 42z m339 -225 c218 -73 360 -270 360 -498 0 -119 -21 -191 -83 -291
-93 -147 -249 -234 -428 -240 -190 -6 -350 75 -457 230 -54 78 -98 216 -93
295 8 171 66 298 181 400 57 51 158 107 208 116 15 3 43 8 63 13 59 12 171 1
249 -25z m1104 -448 c186 -18 359 -158 429 -348 63 -173 22 -393 -99 -523
-120 -131 -246 -185 -416 -181 -145 4 -253 49 -356 147 -99 94 -165 249 -161
376 3 102 15 149 57 238 72 154 240 274 404 292 30 3 57 7 58 9 2 1 9 1 15 -1
7 -2 38 -6 69 -9z"/>
<path d="M1658 5895 c-1 -2 -19 -6 -38 -9 -110 -17 -228 -71 -317 -143 -71
-58 -69 -56 -121 -121 -158 -202 -206 -448 -134 -688 l10 -32 -98 3 c-223 5
-402 -67 -559 -225 -83 -84 -143 -178 -175 -276 -24 -75 -29 -107 -32 -234 -2
-88 2 -132 17 -190 85 -327 358 -550 691 -564 223 -10 424 71 572 228 49 52
118 157 149 227 24 54 56 176 56 214 0 11 0 45 1 75 0 54 -4 101 -15 150 -3
14 -8 36 -11 50 -3 14 -7 33 -10 43 -5 15 -1 17 23 11 31 -8 150 -9 203 -1
165 25 301 95 426 221 152 155 217 323 210 546 -5 130 -22 198 -83 320 -38 75
-64 112 -129 178 -44 45 -84 82 -89 82 -5 0 -16 6 -24 14 -42 36 -121 69 -274
116 -26 8 -241 13 -249 5z m276 -240 c84 -29 161 -81 223 -149 45 -50 107
-164 120 -222 9 -37 10 -210 2 -249 -15 -71 -71 -177 -126 -240 -42 -47 -164
-132 -176 -123 -2 2 -11 -2 -19 -9 -37 -31 -202 -48 -303 -31 -31 5 -109 31
-115 38 -3 3 -21 12 -40 20 -50 21 -173 145 -205 210 -80 157 -85 342 -13 485
78 155 240 274 398 292 25 3 46 6 48 8 11 10 149 -11 206 -30z m-869 -979 c55
-12 172 -76 226 -124 164 -147 222 -403 134 -597 -10 -22 -19 -42 -19 -45 -3
-17 -58 -84 -111 -136 -100 -97 -215 -142 -360 -142 -49 0 -108 6 -134 14 -25
8 -50 16 -56 17 -85 20 -234 156 -284 259 -148 308 15 665 345 752 48 13 199
14 259 2z"/>
<path d="M5345 4316 c-33 -7 -82 -21 -110 -31 -52 -20 -156 -73 -165 -85 -3
-3 -16 -14 -30 -23 -54 -36 -148 -140 -186 -204 -40 -67 -78 -160 -89 -218 -3
-16 -8 -41 -11 -55 -9 -46 -6 -208 6 -267 19 -97 64 -203 120 -278 40 -54 149
-165 162 -165 4 0 8 -7 8 -15 0 -8 -5 -15 -11 -15 -6 0 -38 -17 -72 -37 -107
-66 -227 -201 -282 -318 -11 -22 -20 -42 -20 -45 0 -3 -8 -27 -18 -55 -53
-158 -36 -390 39 -537 84 -164 240 -311 393 -369 31 -11 61 -22 66 -23 6 -1
15 -4 20 -8 34 -20 223 -30 310 -16 72 11 202 55 237 79 14 10 29 19 32 19 17
0 121 84 165 134 14 16 31 34 38 41 15 16 76 113 90 145 35 79 43 102 56 170
38 185 1 392 -96 545 -48 75 -81 113 -156 177 l-43 36 24 15 c12 7 48 29 78
47 30 18 89 68 131 110 59 60 85 97 122 171 25 52 54 123 63 159 22 82 25 285
5 350 -21 69 -53 152 -70 180 -75 127 -144 204 -238 268 -78 53 -107 67 -200
98 -92 30 -268 40 -368 20z m245 -211 c95 -18 179 -60 254 -127 133 -118 200
-301 173 -473 -11 -69 -15 -81 -43 -141 -66 -142 -194 -252 -344 -295 -64 -18
-203 -19 -269 -2 -205 54 -374 239 -396 437 -11 89 -9 116 10 220 2 11 20 53
41 95 105 212 341 329 574 286z m-68 -1310 c96 -32 154 -69 223 -141 121 -125
170 -285 140 -457 -11 -65 -47 -163 -64 -177 -3 -3 -13 -18 -21 -34 -22 -42
-131 -138 -192 -169 -97 -49 -252 -72 -338 -52 -14 3 -36 8 -50 11 -56 11
-176 79 -226 129 -109 109 -166 251 -160 399 2 45 6 88 8 96 3 8 8 29 13 45 9
34 63 143 83 165 90 103 186 166 293 194 85 22 212 18 291 -9z"/>
<path d="M670 3235 c-36 -7 -76 -15 -91 -19 -36 -8 -165 -72 -213 -106 -120
-82 -229 -231 -279 -380 -24 -71 -29 -108 -32 -220 -4 -135 16 -223 78 -345
119 -235 368 -398 620 -406 32 -1 60 -6 63 -10 3 -5 -5 -27 -17 -51 -55 -107
-80 -283 -59 -412 13 -76 52 -196 76 -234 8 -12 12 -22 9 -22 -11 0 73 -115
116 -161 55 -56 109 -98 174 -132 63 -33 168 -73 220 -82 67 -13 227 -12 283
0 29 7 56 13 60 14 33 6 115 39 166 68 87 49 149 103 231 198 29 33 111 195
119 235 3 14 12 54 20 88 16 75 15 235 -4 307 -30 120 -134 291 -226 375 -131
120 -296 187 -477 194 -26 1 -47 5 -47 9 0 4 9 27 20 52 22 51 46 131 56 185
7 42 7 215 0 249 -40 182 -135 344 -262 446 -64 52 -75 59 -159 99 -134 64
-304 87 -445 61z m235 -209 c44 -8 158 -56 163 -68 2 -4 10 -8 17 -8 14 0 132
-112 152 -145 66 -105 92 -201 88 -321 -4 -144 -70 -287 -172 -371 -25 -21
-50 -43 -56 -48 -15 -13 -96 -56 -117 -61 -8 -2 -41 -10 -73 -18 -119 -29
-286 -1 -391 67 -149 95 -247 267 -249 435 -1 121 23 208 82 299 44 66 62 86
123 135 115 93 277 131 433 104z m700 -1117 c143 -32 283 -145 347 -279 105
-218 66 -446 -103 -612 -37 -37 -90 -78 -118 -92 -235 -120 -509 -62 -668 140
-42 53 -81 131 -98 197 -14 52 -14 201 -1 262 12 56 76 174 122 224 78 85 203
155 301 167 20 3 38 6 40 8 6 6 131 -5 178 -15z"/>
<path d="M4207 1784 c-1 -1 -25 -4 -52 -8 -180 -21 -383 -145 -496 -302 -39
-54 -99 -175 -99 -199 0 -8 -2 -15 -5 -15 -3 0 -37 26 -75 59 -103 86 -228
147 -345 167 -90 15 -222 10 -312 -12 -145 -36 -240 -89 -344 -193 -56 -56
-139 -169 -139 -189 0 -6 -3 -12 -7 -14 -10 -4 -53 -123 -60 -163 -2 -16 -8
-46 -12 -65 -4 -19 -7 -64 -6 -100 6 -214 75 -380 220 -527 34 -34 65 -63 69
-63 4 0 16 -9 28 -19 42 -40 181 -103 279 -128 51 -12 238 -11 298 3 255 59
436 207 537 439 16 36 31 65 35 65 4 0 24 -16 45 -36 79 -73 226 -154 314
-170 8 -2 38 -8 65 -13 82 -16 250 -6 330 19 283 90 478 310 531 600 7 41 7
194 0 230 -3 14 -8 39 -12 55 -66 327 -366 566 -727 579 -31 1 -58 1 -60 0z
m227 -243 c82 -29 140 -65 201 -125 51 -50 123 -146 109 -146 -3 0 0 -10 8
-22 13 -20 20 -41 35 -98 2 -8 6 -51 8 -94 16 -335 -294 -603 -625 -540 -419
79 -580 602 -277 896 79 78 182 133 267 145 19 3 37 7 39 8 11 12 184 -7 235
-24z m-1314 -273 c72 -18 199 -85 244 -131 79 -81 130 -169 154 -267 12 -49
17 -170 8 -210 -3 -14 -9 -38 -12 -55 -24 -114 -155 -276 -264 -327 -124 -58
-214 -73 -339 -54 -197 29 -372 191 -425 394 -17 64 -18 186 -2 255 18 75 81
189 134 242 115 114 241 164 397 159 50 -1 97 -4 105 -6z"/>
</g>
</svg>
