<?xml version="1.0" encoding="UTF-8" standalone="no"?>
<svg xmlns:dc="http://purl.org/dc/elements/1.1/" xmlns:cc="http://creativecommons.org/ns#" xmlns:rdf="http://www.w3.org/1999/02/22-rdf-syntax-ns#" xmlns:svg="http://www.w3.org/2000/svg" xmlns="http://www.w3.org/2000/svg" xmlns:sodipodi="http://sodipodi.sourceforge.net/DTD/sodipodi-0.dtd" xmlns:inkscape="http://www.inkscape.org/namespaces/inkscape" id="Layer_1" data-name="Layer 1" viewBox="0 0 618.69 628.53" version="1.1" sodipodi:docname="logo.gsc.black-thick.svg" inkscape:version="0.92.2 (5c3e80d, 2017-08-06)">
  <metadata id="metadata47">
    <rdf:RDF>
      <cc:Work rdf:about="">
        <dc:format>image/svg+xml</dc:format>
        <dc:type rdf:resource="http://purl.org/dc/dcmitype/StillImage" />
        <dc:title>logo.cmsgsc.outline-circles_only</dc:title>
      </cc:Work>
    </rdf:RDF>
  </metadata>
  <sodipodi:namedview pagecolor="#ffffff" bordercolor="#666666" borderopacity="1" objecttolerance="10" gridtolerance="10" guidetolerance="10" inkscape:pageopacity="0" inkscape:pageshadow="2" inkscape:window-width="1280" inkscape:window-height="966" id="namedview45" showgrid="false" inkscape:zoom="1.0620158" inkscape:cx="162.18727" inkscape:cy="330.17292" inkscape:window-x="0" inkscape:window-y="15" inkscape:window-maximized="1" inkscape:current-layer="Layer_1" />
  <defs id="defs4">
    <style id="style2">.cls-1{fill:#fff;}.cls-1,.cls-2{stroke:#000;stroke-miterlimit:10;stroke-width:6.93px;}.cls-2{fill:none;}</style>
  </defs>
  <title id="title6">logo.cmsgsc.outline-circles_only</title>
  <path class="cls-1" d="M395.7,487.1c-20.9,2.1-39.4-3-55.2-16.4A69.61,69.61,0,0,1,317.2,433,71.19,71.19,0,0,1,453,391.3a70.07,70.07,0,0,1,4.2,33.7c-1.2,11.5-5.3,21.9-11.8,31.9,29.7-2.2,53.1,8.2,69.3,32.8,11.2,17,13.9,35.9,8.9,55.6-9.7,39.5-51.6,62.9-90.5,50.3-22.3-7.2-38-22.3-45.6-44.6C379.7,528.4,383,507.2,395.7,487.1Zm58.9,97a57,57,0,0,0,56.8-56.5c.1-30.5-24.7-56.8-56.5-57a56.75,56.75,0,1,0-.3,113.5Zm-68-224.5a56.75,56.75,0,1,0-.3,113.5c30.2.1,57-24.3,57-56.8C443.3,383.2,416,359.5,386.6,359.6Z" transform="translate(-311.76 -38.04)" id="path8" style="fill:#000000" />
  <path class="cls-1" d="M878.5,375.9c18.7,11.8,30.5,28.1,34.4,49.6a69.09,69.09,0,0,1-6.8,44.6A71.34,71.34,0,0,1,831,508c-29.9-5-54-29.1-58.6-58.8-2.6-17,.3-33.1,9.3-47.9s21.6-24.9,38.1-31c-25.5-16.9-38-40.2-34.6-70.7,2.2-20.2,12.2-36.6,28.5-48.5a70.85,70.85,0,0,1,101.7,19c12.3,19.3,14.8,40.2,7.5,61.8C915.4,353.4,900.3,367.8,878.5,375.9ZM786,437.8a56.85,56.85,0,0,0,113.7,0c0-31.2-25.5-56.8-56.5-56.8A56.85,56.85,0,0,0,786,437.8Zm69.7-186a56.8,56.8,0,1,0-.3,113.6c31,.1,57-25.5,57-56.5A56.81,56.81,0,0,0,855.7,251.8Z" transform="translate(-311.76 -38.04)" id="path10" style="fill:#000000" />
  <path class="cls-1" d="M663.3,548.3c5.3-21.8,17.3-38.1,37-48.5a68.17,68.17,0,0,1,43-7.3c30.8,4.6,55.2,28.1,60.1,58.5a71.06,71.06,0,0,1-37.7,75.2,69.71,69.71,0,0,1-47.9,6.2c-16.6-3.6-30.2-12.6-41-26.1-7.6,28.5-24.9,47.4-53.6,54.6-19.8,5-38.7,1.4-55.7-10-34.4-22.7-42.4-70-17.2-102.5,14.1-18.4,33.3-27.9,56.4-27.9S648.5,530.5,663.3,548.3Zm70,71.4a56.85,56.85,0,0,0,56.7-57c-.1-31-25.6-56.5-57-56.5a56.75,56.75,0,1,0,.3,113.5Zm-126.8,29c31.2.1,57-25.2,57-56.5a56.75,56.75,0,1,0-57,56.5Z" transform="translate(-311.76 -38.04)" id="path12" style="fill:#000000" />
  <path class="cls-1" d="M418.2,181.9c-10.3-24.9-8.9-48.8,6.4-71,11.8-17,28.3-27.2,48.9-29.9A70.89,70.89,0,0,1,554,146.7c1.5,24-7.1,44.2-25.6,59.6s-39.9,19.5-63.5,14.4c10.4,25.6,8.7,49.9-7.5,72.3-11.9,16.5-28.4,26.1-48.5,28.5a70.82,70.82,0,0,1-79.8-69.4c-.4-23.4,8.9-42.7,27.3-57.2C374.5,180.6,395.5,176.7,418.2,181.9ZM483,208.4a56.61,56.61,0,0,0,56.5-57c0-31-25.6-56.5-56.8-56.5A57,57,0,0,0,426,151.7C426.1,182.9,451.9,208.5,483,208.4ZM343.5,251.1a56.75,56.75,0,1,0,56.8-57A56.85,56.85,0,0,0,343.5,251.1Z" id="path14" transform="translate(-311.76 -38.04)" style="fill:#000000" />
  <path class="cls-1" d="M692.6,164.5c-14.7,13.3-31.6,19.8-51,19.4a69,69,0,0,1-41.7-15A71.18,71.18,0,0,1,647.2,41.6,70,70,0,0,1,693.6,62c12.7,12.6,19.7,27.9,21.2,46,21.3-18.3,45.3-24.1,71.8-15.4,19.7,6.4,33.8,19.7,42.3,38.7,16.9,38-2.5,82.3-41.9,96a73.65,73.65,0,0,1-32.3,3.5,71.78,71.78,0,0,1-30.2-11.1,69,69,0,0,1-22.3-23.6A72.83,72.83,0,0,1,692.6,164.5Zm71.1,52.1c31.3-.1,57-25.8,56.7-57a56.7,56.7,0,0,0-57.1-56.5c-31,.1-56.5,25.8-56.5,57S732.6,216.6,763.7,216.6Zm-63.4-104a56.75,56.75,0,1,0-56.8,56.8A56.85,56.85,0,0,0,700.3,112.6Z" transform="translate(-311.76 -38.04)" id="path16" style="fill:#000000" />
  <path class="cls-1" d="M1004.2,317.5" transform="translate(-311.76 -38.04)" id="path18" />
  <path class="cls-1" d="M707.2,787" transform="translate(-311.76 -38.04)" id="path20" />
  <path class="cls-1" d="M870.4,646.3" transform="translate(-311.76 -38.04)" id="path22" />
  <path class="cls-2" d="M454.6,584.1a56.75,56.75,0,1,1,.3-113.5c31.9.1,56.5,26.3,56.5,57A57,57,0,0,1,454.6,584.1Z" transform="translate(-311.76 -38.04)" id="path24" />
  <path class="cls-2" d="M386.6,359.6a56.75,56.75,0,1,1-57,56.5A56.82,56.82,0,0,1,386.6,359.6Z" transform="translate(-311.76 -38.04)" id="path26" />
  <path class="cls-2" d="M786,437.8a56.85,56.85,0,0,1,57-56.7c31,0,56.5,25.6,56.5,56.8a56.75,56.75,0,1,1-113.5-.1Z" transform="translate(-311.76 -38.04)" id="path28" />
  <path class="cls-2" d="M855.7,251.8a56.91,56.91,0,0,1,56.7,57c0,31-25.8,56.5-57,56.5-30.3-.1-56.7-24.4-56.7-56.8A56.89,56.89,0,0,1,855.7,251.8Z" transform="translate(-311.76 -38.04)" id="path30" />
  <path class="cls-2" d="M733.3,619.7a56.75,56.75,0,1,1,56.7-57A57.06,57.06,0,0,1,733.3,619.7Z" transform="translate(-311.76 -38.04)" id="path32" />
  <path class="cls-2" d="M606.5,648.7a56.85,56.85,0,1,1,57-56.6C663.5,623.3,637.8,648.7,606.5,648.7Z" transform="translate(-311.76 -38.04)" id="path34" />
  <path class="cls-2" d="M483,208.4a56.8,56.8,0,1,1,56.5-57.1A57.06,57.06,0,0,1,483,208.4Z" transform="translate(-311.76 -38.04)" id="path36" />
  <path class="cls-2" d="M343.5,251.1a56.75,56.75,0,1,1,56.7,56.7C369,307.6,343.5,282.3,343.5,251.1Z" id="path38" transform="translate(-311.76 -38.04)" />
  <path class="cls-2" d="M763.7,216.6c-31,.1-56.8-25.5-57-56.5-.1-31.2,25.4-57,56.5-57a56.76,56.76,0,0,1,57.1,56.5C820.6,190.8,795,216.6,763.7,216.6Z" transform="translate(-311.76 -38.04)" id="path40" />
  <path class="cls-2" d="M700.3,112.6a56.85,56.85,0,1,1-56.9-56.7A56.93,56.93,0,0,1,700.3,112.6Z" transform="translate(-311.76 -38.04)" id="path42" />
</svg>
